<svg width="76" height="63" viewBox="0 0 76 63" fill="none" xmlns="http://www.w3.org/2000/svg">
<path d="M74.4014 11.5069C73.7945 11.5069 73.3027 11.9988 73.3027 12.6055V51.4484H45.5543L45.1029 50.6663C45.7058 50.0544 46.2292 49.3646 46.6593 48.6145H64.3392C64.9461 48.6145 65.4378 48.1226 65.4378 47.5158V46.0361C65.4378 44.6836 66.5382 43.5833 67.8906 43.5833H69.3704C69.9772 43.5833 70.469 43.0914 70.469 42.4847V11.4107C70.469 10.8039 69.9772 10.312 69.3704 10.312H67.8906C66.5382 10.312 65.4378 9.21179 65.4378 7.8593V6.37952C65.4378 5.77278 64.9461 5.28088 64.3392 5.28088H23.7165C23.1097 5.28088 22.6178 5.77278 22.6178 6.37952C22.6178 6.98625 23.1097 7.47815 23.7165 7.47815H63.2404V7.8593C63.2404 10.4232 65.3264 12.5093 67.8904 12.5093H68.2716V41.3863H67.8904C65.3264 41.3863 63.2404 43.4723 63.2404 46.0363V46.4175H47.5889C47.8398 45.5437 47.977 44.6222 47.977 43.6689C47.977 38.1675 43.5014 33.6918 38.0001 33.6918C32.4989 33.6918 28.0231 38.1675 28.0231 43.6689C28.0231 44.6223 28.1604 45.5437 28.4113 46.4175H12.7594V46.0363C12.7594 43.4723 10.6735 41.3863 8.10942 41.3863H7.72827V12.5093H8.10942C10.6733 12.5093 12.7594 10.4234 12.7594 7.8593V7.47815H18.5867C19.1935 7.47815 19.6854 6.98625 19.6854 6.37952C19.6854 5.77278 19.1935 5.28088 18.5867 5.28088H11.6608C11.0541 5.28088 10.5622 5.77278 10.5622 6.37952V7.8593C10.5622 9.21164 9.46191 10.312 8.10942 10.312H6.62979C6.02305 10.312 5.53115 10.8039 5.53115 11.4107V42.485C5.53115 43.0917 6.02305 43.5836 6.62979 43.5836H8.10957C9.46191 43.5836 10.5623 44.6839 10.5623 46.0363V47.5161C10.5623 48.1229 11.0542 48.6148 11.6609 48.6148H29.3409C29.7709 49.3649 30.2943 50.0546 30.8974 50.6666L30.4459 51.4485H2.69727V42.5891C2.69727 41.9824 2.20537 41.4905 1.59863 41.4905C0.991895 41.4905 0.5 41.9824 0.5 42.5891V52.5471C0.5 53.1539 0.991895 53.6458 1.59863 53.6458H29.1771L26.7437 57.8604C26.5979 58.1128 26.5585 58.4127 26.6338 58.6941C26.7093 58.9755 26.8934 59.2155 27.1458 59.3611L32.2717 62.3206C32.4447 62.4205 32.6337 62.4679 32.82 62.4679C33.1997 62.4679 33.569 62.2708 33.7725 61.9185L38 54.5963L42.2274 61.9185C42.373 62.1709 42.6131 62.3549 42.8945 62.4304C42.9881 62.4555 43.0836 62.4678 43.1788 62.4678C43.37 62.4678 43.5597 62.4178 43.7281 62.3206L48.8539 59.3611C49.3793 59.0578 49.5594 58.3859 49.256 57.8604L46.8228 53.6458H74.4014C75.0083 53.6458 75.5 53.1539 75.5 52.5471V12.6055C75.5 11.9988 75.0083 11.5069 74.4014 11.5069ZM38 35.8891C42.2896 35.8891 45.7796 39.3791 45.7796 43.6689C45.7796 47.9587 42.2896 51.4485 38 51.4485C33.7102 51.4485 30.2202 47.9585 30.2202 43.6689C30.2202 39.3792 33.7102 35.8891 38 35.8891ZM32.4191 59.8684L29.196 58.0076L32.6253 52.0677C33.6723 52.7401 34.8518 53.2223 36.1161 53.4649L32.4191 59.8684ZM43.5811 59.8684L39.8839 53.465C41.1482 53.2223 42.3276 52.7401 43.3747 52.0677L46.804 58.0076L43.5811 59.8684Z" fill="white"/>
<path d="M74.4014 0.25H1.59863C0.991895 0.25 0.5 0.741895 0.5 1.34863V37.4591C0.5 38.0658 0.991895 38.5577 1.59863 38.5577C2.20537 38.5577 2.69727 38.0658 2.69727 37.4591V2.44727H73.3027V7.47168C73.3027 8.07842 73.7945 8.57031 74.4014 8.57031C75.0083 8.57031 75.5 8.07842 75.5 7.47168V1.34863C75.5 0.741895 75.0083 0.25 74.4014 0.25Z" fill="white"/>
<path d="M38 48.6148C40.7272 48.6148 42.946 46.3962 42.946 43.6689C42.946 40.9417 40.7272 38.7229 38 38.7229C35.2727 38.7229 33.0541 40.9417 33.0541 43.6689C33.0541 46.3962 35.2727 48.6148 38 48.6148ZM38 40.9202C39.5156 40.9202 40.7488 42.1533 40.7488 43.6689C40.7488 45.1846 39.5156 46.4176 38 46.4176C36.4843 46.4176 35.2513 45.1846 35.2513 43.6689C35.2513 42.1533 36.4843 40.9202 38 40.9202Z" fill="white"/>
<path d="M46.8784 16.9487C47.4853 16.9487 47.977 16.4568 47.977 15.8501V11.115C47.977 10.5083 47.4853 10.0164 46.8784 10.0164H29.1217C28.515 10.0164 28.0231 10.5083 28.0231 11.115V15.8501C28.0231 16.4568 28.515 16.9487 29.1217 16.9487H46.8784ZM30.2203 12.2136H45.7798V14.7515H30.2203V12.2136Z" fill="white"/>
<path d="M16.1852 25.3203C16.1852 25.9271 16.6771 26.4189 17.2838 26.4189H58.7163C59.3232 26.4189 59.815 25.9271 59.815 25.3203C59.815 24.7136 59.3232 24.2217 58.7163 24.2217H17.2838C16.6771 24.2217 16.1852 24.7136 16.1852 25.3203Z" fill="white"/>
<path d="M22.1042 20.5852C22.1042 21.1919 22.5961 21.6838 23.2029 21.6838H52.7976C53.4044 21.6838 53.8962 21.1919 53.8962 20.5852C53.8962 19.9785 53.4044 19.4866 52.7976 19.4866H23.2029C22.5961 19.4866 22.1042 19.9785 22.1042 20.5852Z" fill="white"/>
<path d="M58.7163 28.9569H17.2838C16.6771 28.9569 16.1852 29.4488 16.1852 30.0555C16.1852 30.6623 16.6771 31.1542 17.2838 31.1542H58.7163C59.3232 31.1542 59.815 30.6623 59.815 30.0555C59.815 29.4488 59.3231 28.9569 58.7163 28.9569Z" fill="white"/>
<path d="M22.4179 38.1936C23.0618 38.4523 23.7884 38.2958 24.2687 37.7947L24.6379 37.4096C24.7318 37.9211 25.1798 38.3087 25.7183 38.3087C26.3251 38.3087 26.817 37.8168 26.817 37.2101V36.1676C26.817 35.4735 26.4008 34.8578 25.7568 34.599C25.1129 34.3405 24.3865 34.4966 23.906 34.9979L23.555 35.3641V35.0878C23.555 34.4015 23.1455 33.7885 22.5113 33.5259C21.8774 33.2634 21.1542 33.4071 20.6692 33.8924L16.5071 38.0544C16.078 38.4835 16.078 39.1791 16.5071 39.608C16.7215 39.8226 17.0028 39.9299 17.2839 39.9299C17.565 39.9299 17.8463 39.8226 18.0607 39.608L21.3576 36.3111V36.625C21.3578 37.3191 21.7739 37.9347 22.4179 38.1936Z" fill="white"/>
<path d="M55.4158 38.1936C56.0596 38.4521 56.7861 38.2957 57.2665 37.7947L57.6358 37.4094C57.7297 37.9209 58.1777 38.3085 58.7164 38.3085C59.3233 38.3085 59.815 37.8167 59.815 37.2099V36.1674C59.815 35.4733 59.3988 34.8577 58.7549 34.5988C58.111 34.34 57.3845 34.4966 56.9041 34.9976L56.5531 35.3638V35.0877C56.5531 34.4014 56.1434 33.7883 55.5095 33.5258C54.8757 33.263 54.1524 33.4072 53.6671 33.8923L49.5051 38.0544C49.0761 38.4835 49.0761 39.1791 49.5051 39.608C49.7197 39.8225 50.001 39.9298 50.2821 39.9298C50.5632 39.9298 50.8444 39.8226 51.059 39.608L54.356 36.3111V36.625C54.3555 37.319 54.7717 37.9347 55.4158 38.1936Z" fill="white"/>
</svg>
