<svg width="74" height="75" viewBox="0 0 74 75" fill="none" xmlns="http://www.w3.org/2000/svg">
<path d="M72.7705 44.7502H65.3956C64.7168 44.7502 64.1664 45.3006 64.1664 45.9794H60.4789C59.8001 45.9794 59.2497 46.5298 59.2497 47.2086V47.4298L54.2704 48.4254L41.6887 47.2086C41.3855 47.1795 41.0824 47.264 40.8381 47.4458L38.2679 49.3621L35.3487 47.4151C35.1157 47.2576 34.8359 47.1848 34.5558 47.2086L21.1924 48.4242L14.9998 47.3966V47.2086C14.9998 46.5298 14.4495 45.9794 13.7707 45.9794H10.0832C10.0832 45.3006 9.53283 44.7502 8.85402 44.7502H1.47904C0.800236 44.7502 0.249878 45.3006 0.249878 45.9794V68.1044C0.249878 68.7832 0.800236 69.3335 1.47904 69.3335H8.85402C9.53283 69.3335 10.0832 68.7832 10.0832 68.1044H13.7707C14.4495 68.1044 14.9998 67.554 14.9998 66.8752H19.6805L37.8967 74.1629C38.1453 74.2615 38.4191 74.2771 38.6772 74.2072L52.198 70.5197C52.8441 70.3502 53.2307 69.6891 53.0612 69.043C53.058 69.0308 53.0546 69.0187 53.0511 69.0066L59.3198 67.2464C59.4765 67.7554 59.9464 68.1031 60.4789 68.1044H64.1664C64.1664 68.7832 64.7168 69.3335 65.3956 69.3335H72.7705C73.4494 69.3335 73.9997 68.7832 73.9997 68.1044V45.9794C73.9997 45.3006 73.4494 44.7502 72.7705 44.7502ZM7.62486 66.8752H2.70821V47.2086H7.62486V66.8752ZM12.5415 65.646H10.0832V48.4377H12.5415V65.646ZM38.4277 71.7267L20.3737 64.5041C20.2282 64.4465 20.0731 64.4169 19.9165 64.4169H14.9998V49.8881L20.9429 50.8789C21.0464 50.8958 21.1517 50.8999 21.2563 50.8911L34.3457 49.7013L36.1734 50.9194L32.8547 53.3864C30.9166 54.6633 30.3805 57.2697 31.6576 59.2078C32.4371 60.3907 33.76 61.1015 35.1766 61.0981C36.035 61.0966 36.8736 60.8398 37.5857 60.3606L38.3011 59.8223L49.2505 68.7804L38.4277 71.7267ZM59.2399 64.7143L50.9898 67.0288L40.3206 58.2932L42.3106 56.796L40.8356 54.8294L36.1648 58.3485C35.3599 58.8861 34.2714 58.6694 33.7337 57.8643C33.5081 57.5268 33.4069 57.1213 33.4471 56.7174C33.5048 56.1736 33.8082 55.6864 34.2707 55.3948L41.9247 49.7062L54.2102 50.8961C54.3302 50.9067 54.4509 50.9001 54.5691 50.8764L59.2399 49.9422V64.7143ZM64.1664 65.646H61.7081V48.4377H64.1664V65.646ZM71.5414 66.8752H66.6247V47.2086H71.5414V66.8752Z" fill="white"/>
<path d="M19.1788 68.2021L18.21 70.4615L26.8139 74.1508L27.7828 71.8914L19.1788 68.2021Z" fill="white"/>
<path d="M28.521 17.7083H17.4585V10.3333C17.4585 9.6545 16.9082 9.10415 16.2294 9.10415H12.5419V4.18749C12.5419 3.50869 11.9915 2.95833 11.3127 2.95833H10.0836V0.5H7.62523V2.95833H6.39606C5.71726 2.95833 5.1669 3.50869 5.1669 4.18749V9.10415H1.47941C0.800602 9.10415 0.250244 9.6545 0.250244 10.3333V41.0624C0.250244 41.7412 0.800602 42.2916 1.47941 42.2916H28.521C29.1998 42.2916 29.7502 41.7412 29.7502 41.0624V18.9375C29.7502 18.2586 29.1998 17.7083 28.521 17.7083ZM7.62523 5.41666H10.0836V9.10415H7.62523V5.41666ZM15.0002 39.8332H2.70857V11.5625H15.0002V39.8332ZM27.2918 22.6249H24.8335V25.0833H27.2918V27.5416H24.8335V29.9999H27.2918V39.8332H17.4585V20.1666H27.2918V22.6249Z" fill="white"/>
<path d="M7.62489 18.9376H5.16656V21.3959H7.62489V18.9376Z" fill="white"/>
<path d="M12.5416 18.9376H10.0833V21.3959H12.5416V18.9376Z" fill="white"/>
<path d="M7.62489 23.8544H5.16656V26.3127H7.62489V23.8544Z" fill="white"/>
<path d="M12.5416 23.8544H10.0833V26.3127H12.5416V23.8544Z" fill="white"/>
<path d="M7.62489 28.771H5.16656V31.2293H7.62489V28.771Z" fill="white"/>
<path d="M22.3751 22.6251H19.9168V25.0834H22.3751V22.6251Z" fill="white"/>
<path d="M22.3751 27.5417H19.9168V30.0001H22.3751V27.5417Z" fill="white"/>
<path d="M7.62489 14.0212H5.16656V16.4796H7.62489V14.0212Z" fill="white"/>
<path d="M12.5416 14.0212H10.0833V16.4796H12.5416V14.0212Z" fill="white"/>
<path d="M53.104 0.500244V2.34399C53.104 3.3622 52.2785 4.18774 51.2603 4.18774C48.8843 4.18774 46.9582 6.11384 46.9582 8.48981V10.3336H49.4165V8.48981C49.4165 7.4716 50.2421 6.64606 51.2603 6.64606C53.6362 6.64606 55.5623 4.71996 55.5623 2.34399V0.500244H53.104Z" fill="white"/>
<path d="M73.5709 27.838L64.9667 20.463C64.4514 20.0211 63.6755 20.0806 63.2335 20.5959C63.0425 20.8187 62.9374 21.1025 62.9374 21.396V23.9907L58.8209 20.463C58.3056 20.0211 57.5297 20.0806 57.0877 20.5959C56.8967 20.8187 56.7916 21.1025 56.7916 21.396V27.5418H54.3332V15.2501H55.5624V12.7918H54.675C55.1105 12.0337 55.9172 11.5653 56.7916 11.5626C60.1841 11.5586 62.9334 8.80932 62.9374 5.41682V2.9585H60.4791V5.41682C60.4791 7.45339 58.8281 9.10431 56.7916 9.10431C54.5565 9.11277 52.6083 10.6276 52.0495 12.7918H45.7291V15.2501H46.9583V27.5418H45.7291C45.0503 27.5418 44.4999 28.0921 44.4999 28.7709V41.0626C44.4999 41.7414 45.0503 42.2917 45.7291 42.2917H72.7707C73.4495 42.2917 73.9999 41.7414 73.9999 41.0626V28.7709C73.9999 28.4123 73.8432 28.0715 73.5709 27.838ZM49.4166 15.2501H51.8749V27.5418H49.4166V15.2501ZM71.5415 39.8334H46.9583V30.0001H58.0207C58.6995 30.0001 59.2499 29.4497 59.2499 28.7709V24.0682L63.3664 27.5971C63.8817 28.039 64.6576 27.9795 65.0996 27.4642C65.2908 27.2414 65.3957 26.9576 65.3957 26.6641V24.0682L71.5415 29.3363V39.8334Z" fill="white"/>
<path d="M64.1663 34.917H61.708V37.3753H64.1663V34.917Z" fill="white"/>
<path d="M69.083 34.917H66.6246V37.3753H69.083V34.917Z" fill="white"/>
<path d="M64.1663 30.0001H61.708V32.4584H64.1663V30.0001Z" fill="white"/>
<path d="M69.083 30.0001H66.6246V32.4584H69.083V30.0001Z" fill="white"/>
<path d="M51.8748 32.4586H49.4164V34.9169H51.8748V32.4586Z" fill="white"/>
<path d="M56.7915 32.4586H54.3331V34.9169H56.7915V32.4586Z" fill="white"/>
<path d="M38.354 31.2293V28.771H35.8957V31.2293H33.4374V33.6877H35.8957V36.146H38.354V33.6877H40.8124V31.2293H38.354Z" fill="white"/>
</svg>
