<svg width="70" height="66" viewBox="0 0 70 66" fill="none" xmlns="http://www.w3.org/2000/svg">
<path d="M1.12069 28.2672H7.33789C7.70561 29.5932 8.23531 30.8689 8.91648 32.0644L4.51603 36.4631C4.3059 36.6733 4.1877 36.9583 4.1877 37.2559C4.1877 37.5536 4.3059 37.8386 4.51603 38.0487L9.2702 42.8042C9.70797 43.2411 10.4172 43.2411 10.8549 42.8042L15.2558 38.4029C16.4514 39.0836 17.7257 39.6138 19.0517 39.9811V46.1983C19.0517 46.8173 19.5534 47.3189 20.1724 47.3189H26.8965C27.5155 47.3189 28.0172 46.8173 28.0172 46.1983V39.9811C29.3432 39.6138 30.6176 39.0836 31.8131 38.4029L36.214 42.8042C36.6588 43.2245 37.3544 43.2245 37.7987 42.8042L42.5538 38.0487C42.7639 37.8386 42.8821 37.5536 42.8821 37.2559C42.8821 36.9583 42.7639 36.6733 42.5538 36.4631L38.1525 32.0644C38.8336 30.8689 39.3633 29.5932 39.7311 28.2672H45.9483C46.5673 28.2672 47.0689 27.7655 47.0689 27.1465V20.4224C47.0689 19.8038 46.5673 19.3017 45.9483 19.3017H39.7311C39.3633 17.9762 38.8336 16.7005 38.1525 15.5049L42.5529 11.1062C42.7631 10.8961 42.8812 10.6111 42.8812 10.3134C42.8812 10.0158 42.7631 9.73077 42.5529 9.52064L37.7987 4.76515C37.361 4.32782 36.6518 4.32782 36.214 4.76515L31.8131 9.16648C30.6176 8.48619 29.3428 7.95605 28.0172 7.58833V1.37069C28.0172 0.752121 27.5155 0.25 26.8965 0.25H20.1724C19.5534 0.25 19.0517 0.752121 19.0517 1.37069V7.58833C17.7262 7.95605 16.4514 8.48619 15.2558 9.16648L10.8549 4.76515C10.4102 4.34489 9.71454 4.34489 9.2702 4.76515L4.51515 9.52064C4.30502 9.73077 4.18682 10.0158 4.18682 10.3134C4.18682 10.6111 4.30502 10.8961 4.51515 11.1062L8.91648 15.5049C8.23531 16.7005 7.70561 17.9762 7.33789 19.3017H1.12069C0.501683 19.3017 0 19.8038 0 20.4224V27.1465C0 27.7655 0.501683 28.2672 1.12069 28.2672ZM2.24138 21.5431H8.21474C8.74138 21.5431 9.19709 21.1767 9.3096 20.6623C9.67733 18.9839 10.3423 17.3843 11.273 15.9396C11.5571 15.4966 11.4941 14.9148 11.1215 14.5423L6.89224 10.313L10.0626 7.14224L14.291 11.3715C14.6635 11.7449 15.2458 11.808 15.6896 11.5234C17.1347 10.5932 18.7339 9.9282 20.4123 9.56004C20.9262 9.44709 21.2931 8.99138 21.2931 8.46474V2.49138H25.7759V8.46474C25.7759 8.99138 26.1427 9.44709 26.6566 9.56004C28.3351 9.9282 29.9342 10.5932 31.3793 11.5234C31.8232 11.808 32.4054 11.7449 32.778 11.3715L37.0064 7.14224L40.1758 10.313L35.9474 14.541C35.574 14.914 35.5114 15.4962 35.796 15.9396C36.7267 17.3852 37.3907 18.9843 37.758 20.6632C37.871 21.1776 38.3267 21.5444 38.8529 21.5444H44.8276V26.0272H38.8529C38.3267 26.0272 37.871 26.3936 37.758 26.908C37.3907 28.5864 36.7262 30.1855 35.796 31.6293C35.5118 32.0728 35.5749 32.6546 35.9474 33.0271L40.1767 37.2555L37.0064 40.4271L32.778 36.1974C32.4054 35.8244 31.8232 35.7614 31.3793 36.046C29.9351 36.9767 28.3364 37.6416 26.658 38.0093C26.1431 38.1214 25.7759 38.5776 25.7759 39.1042V45.0776H21.2931V39.1042C21.2931 38.5776 20.9258 38.1214 20.411 38.0093C18.7326 37.6416 17.1339 36.9767 15.6896 36.046C15.2458 35.7614 14.6635 35.8244 14.291 36.1974L10.0626 40.4271L6.89311 37.2564L11.1215 33.028C11.4949 32.6554 11.5575 32.0732 11.273 31.6293C10.3423 30.1842 9.67733 28.5846 9.3096 26.9058C9.19666 26.3914 8.74138 26.0259 8.21474 26.0259H2.24138V21.5431Z" fill="white"/>
<path d="M23.5345 32.7501C28.4861 32.7501 32.5 28.7367 32.5 23.7846C32.5 18.833 28.4861 14.8191 23.5345 14.8191C18.5829 14.8191 14.569 18.833 14.569 23.7846C14.5742 28.7336 18.5855 32.7449 23.5345 32.7501ZM23.5345 17.0605C27.2476 17.0605 30.2586 20.0714 30.2586 23.7846C30.2586 27.4982 27.2476 30.5087 23.5345 30.5087C19.8213 30.5087 16.8103 27.4982 16.8103 23.7846C16.8143 20.0723 19.8222 17.0644 23.5345 17.0605Z" fill="white"/>
<path d="M23.5345 36.1121C30.3427 36.1121 35.8621 30.5931 35.8621 23.7845C35.8621 16.9763 30.3427 11.4569 23.5345 11.4569C16.7263 11.4569 11.2069 16.9763 11.2069 23.7845C11.2152 30.5896 16.7294 36.1042 23.5345 36.1121ZM23.5345 13.6983C29.1051 13.6983 33.6207 18.2139 33.6207 23.7845C33.6207 29.3551 29.1051 33.8707 23.5345 33.8707C17.9639 33.8707 13.4483 29.3551 13.4483 23.7845C13.4544 18.2169 17.9665 13.7044 23.5345 13.6983Z" fill="white"/>
<path d="M63.8793 51.8018V42.8363C63.8793 42.2177 63.3776 41.7156 62.7586 41.7156H60.5172V32.7501C60.5172 32.1315 60.0155 31.6294 59.3965 31.6294H49.3103C48.6913 31.6294 48.1896 32.1315 48.1896 32.7501V41.7156H42.5862C41.9672 41.7156 41.4655 42.2177 41.4655 42.8363V51.8018H5.60345C2.51017 51.8057 0.00393992 54.312 0 57.4052V59.6466C0.00393992 62.7403 2.51017 65.2466 5.60345 65.2501H63.8793C66.9726 65.2466 69.4788 62.7403 69.4827 59.6466V57.4052C69.4788 54.312 66.9726 51.8057 63.8793 51.8018ZM61.6379 51.8018H53.7931V43.957H61.6379V51.8018ZM50.431 33.8708H58.2758V41.7156H50.431V33.8708ZM43.7069 43.957H51.5517V51.8018H43.7069V43.957ZM67.2414 59.6466C67.2414 61.5036 65.7359 63.0087 63.8793 63.0087H5.60345C3.74687 63.0087 2.24138 61.5036 2.24138 59.6466V57.4052C2.24138 55.5487 3.74687 54.0432 5.60345 54.0432H63.8793C65.7359 54.0432 67.2414 55.5487 67.2414 57.4052V59.6466Z" fill="white"/>
<path d="M34.7413 55.1637C32.8848 55.1637 31.3793 56.6692 31.3793 58.5258C31.3793 60.3828 32.8848 61.8878 34.7413 61.8878C36.5979 61.8878 38.1034 60.3828 38.1034 58.5258C38.1034 56.6692 36.5979 55.1637 34.7413 55.1637ZM34.7413 59.6465C34.1223 59.6465 33.6207 59.1448 33.6207 58.5258C33.6207 57.9072 34.1223 57.4051 34.7413 57.4051C35.3603 57.4051 35.862 57.9072 35.862 58.5258C35.862 59.1448 35.3603 59.6465 34.7413 59.6465Z" fill="white"/>
<path d="M23.5345 55.1637C21.6779 55.1637 20.1724 56.6692 20.1724 58.5258C20.1724 60.3828 21.6779 61.8878 23.5345 61.8878C25.3911 61.8878 26.8966 60.3828 26.8966 58.5258C26.8966 56.6692 25.3911 55.1637 23.5345 55.1637ZM23.5345 59.6465C22.9155 59.6465 22.4138 59.1448 22.4138 58.5258C22.4138 57.9072 22.9155 57.4051 23.5345 57.4051C24.1535 57.4051 24.6552 57.9072 24.6552 58.5258C24.6552 59.1448 24.1535 59.6465 23.5345 59.6465Z" fill="white"/>
<path d="M45.9482 55.1637C44.0916 55.1637 42.5862 56.6692 42.5862 58.5258C42.5862 60.3828 44.0916 61.8878 45.9482 61.8878C47.8048 61.8878 49.3103 60.3828 49.3103 58.5258C49.3103 56.6692 47.8048 55.1637 45.9482 55.1637ZM45.9482 59.6465C45.3292 59.6465 44.8275 59.1448 44.8275 58.5258C44.8275 57.9072 45.3292 57.4051 45.9482 57.4051C46.5672 57.4051 47.0689 57.9072 47.0689 58.5258C47.0689 59.1448 46.5672 59.6465 45.9482 59.6465Z" fill="white"/>
<path d="M12.3276 55.1637C10.471 55.1637 8.96552 56.6692 8.96552 58.5258C8.96552 60.3828 10.471 61.8878 12.3276 61.8878C14.1842 61.8878 15.6897 60.3828 15.6897 58.5258C15.6897 56.6692 14.1842 55.1637 12.3276 55.1637ZM12.3276 59.6465C11.7086 59.6465 11.2069 59.1448 11.2069 58.5258C11.2069 57.9072 11.7086 57.4051 12.3276 57.4051C12.9466 57.4051 13.4483 57.9072 13.4483 58.5258C13.4483 59.1448 12.9466 59.6465 12.3276 59.6465Z" fill="white"/>
<path d="M57.1552 55.1637C55.2986 55.1637 53.7931 56.6692 53.7931 58.5258C53.7931 60.3828 55.2986 61.8878 57.1552 61.8878C59.0117 61.8878 60.5172 60.3828 60.5172 58.5258C60.5172 56.6692 59.0117 55.1637 57.1552 55.1637ZM57.1552 59.6465C56.5362 59.6465 56.0345 59.1448 56.0345 58.5258C56.0345 57.9072 56.5362 57.4051 57.1552 57.4051C57.7742 57.4051 58.2758 57.9072 58.2758 58.5258C58.2758 59.1448 57.7742 59.6465 57.1552 59.6465Z" fill="white"/>
</svg>
