<svg width="108" height="16" viewBox="0 0 108 16" fill="none" xmlns="http://www.w3.org/2000/svg">
<path d="M6.69533 1.2753L4.86449 4.98744L0.768236 5.58464C0.0336581 5.69118 -0.260734 6.59679 0.271975 7.11548L3.23552 10.0033L2.53459 14.0828C2.40842 14.8201 3.18505 15.3725 3.83552 15.0276L7.5 13.1014L11.1645 15.0276C11.8149 15.3697 12.5916 14.8201 12.4654 14.0828L11.7645 10.0033L14.728 7.11548C15.2607 6.59679 14.9663 5.69118 14.2318 5.58464L10.1355 4.98744L8.30467 1.2753C7.97664 0.613618 7.02617 0.605207 6.69533 1.2753Z" fill="#FE9901"/>
<path d="M56.6953 1.2753L54.8645 4.98744L50.7682 5.58464C50.0337 5.69118 49.7393 6.59679 50.272 7.11548L53.2355 10.0033L52.5346 14.0828C52.4084 14.8201 53.1851 15.3725 53.8355 15.0276L57.5 13.1014L61.1645 15.0276C61.8149 15.3697 62.5916 14.8201 62.4654 14.0828L61.7645 10.0033L64.728 7.11548C65.2607 6.59679 64.9663 5.69118 64.2318 5.58464L60.1355 4.98744L58.3047 1.2753C57.9766 0.613618 57.0262 0.605207 56.6953 1.2753Z" fill="#FE9901"/>
<path d="M31.6953 1.2753L29.8645 4.98744L25.7682 5.58464C25.0337 5.69118 24.7393 6.59679 25.272 7.11548L28.2355 10.0033L27.5346 14.0828C27.4084 14.8201 28.1851 15.3725 28.8355 15.0276L32.5 13.1014L36.1645 15.0276C36.8149 15.3697 37.5916 14.8201 37.4654 14.0828L36.7645 10.0033L39.728 7.11548C40.2607 6.59679 39.9663 5.69118 39.2318 5.58464L35.1355 4.98744L33.3047 1.2753C32.9766 0.613618 32.0262 0.605207 31.6953 1.2753Z" fill="#FE9901"/>
<path d="M81.6953 1.2753L79.8645 4.98744L75.7682 5.58464C75.0337 5.69118 74.7393 6.59679 75.272 7.11548L78.2355 10.0033L77.5346 14.0828C77.4084 14.8201 78.1851 15.3725 78.8355 15.0276L82.5 13.1014L86.1645 15.0276C86.8149 15.3697 87.5916 14.8201 87.4654 14.0828L86.7645 10.0033L89.728 7.11548C90.2607 6.59679 89.9663 5.69118 89.2318 5.58464L85.1355 4.98744L83.3047 1.2753C82.9766 0.613618 82.0262 0.605207 81.6953 1.2753Z" fill="#FE9901"/>
<path fill-rule="evenodd" clip-rule="evenodd" d="M107.521 0.776159C107.194 0.768114 106.864 0.933376 106.695 1.2753L104.864 4.98744L100.768 5.58464C100.034 5.69118 99.7393 6.59679 100.272 7.11548L103.236 10.0033L102.535 14.0828C102.408 14.8201 103.185 15.3725 103.836 15.0276L107.5 13.1014L107.521 13.1124V0.776159Z" fill="#FE9901"/>
</svg>
