<svg width="69" height="69" viewBox="0 0 69 69" fill="none" xmlns="http://www.w3.org/2000/svg">
<path opacity="0.7" d="M62.9575 6.71387C59.6258 6.71387 56.915 9.42459 56.915 12.7563V28.1416C54.7892 27.3942 52.3255 27.8683 50.6281 29.5651L35.555 44.6383C35.2172 44.9761 34.9077 45.3349 34.625 45.7104C34.3423 45.3349 34.0328 44.9761 33.695 44.6383L18.6219 29.5651C16.9245 27.8683 14.4608 27.3942 12.335 28.1416V12.7563C12.335 9.42459 9.62424 6.71387 6.29248 6.71387C2.96072 6.71387 0.25 9.42459 0.25 12.7563V40.5077L10.3208 59.8436V68.75H58.9292V59.8436L69 40.5077V12.7563C69 9.42459 66.2893 6.71387 62.9575 6.71387ZM4.27832 39.5216V12.7563C4.27832 11.6459 5.18207 10.7422 6.29248 10.7422C7.40289 10.7422 8.30664 11.6459 8.30664 12.7563V33.905C8.32762 35.4298 8.91561 36.9499 10.0764 38.1106L25.1438 53.1775L27.9919 50.3294L12.925 35.262C12.1398 34.4768 12.1398 33.199 12.925 32.4138C13.7103 31.6286 14.9885 31.6286 15.7737 32.4138L30.8464 47.487C31.984 48.6247 32.6108 50.1437 32.6108 51.7639V64.7217H14.3491V58.8575L4.27832 39.5216ZM64.9717 39.5216L54.9009 58.8575V64.7217H36.6392V51.7639C36.6392 50.1437 37.266 48.6247 38.4036 47.487L53.4768 32.4138C54.262 31.6286 55.5397 31.6286 56.325 32.4138C57.1102 33.199 57.1102 34.4768 56.325 35.2625L41.2581 50.3294L44.1062 53.1775L59.1736 38.1106C60.3344 36.9499 60.9219 35.4298 60.9386 33.905C60.9434 33.905 60.9434 12.7563 60.9434 12.7563C60.9434 11.6459 61.8471 10.7422 62.9575 10.7422C64.0679 10.7422 64.9717 11.6459 64.9717 12.7563V39.5216Z" fill="#393939"/>
<path d="M34.625 34.0383C38.3911 34.0383 41.9316 32.5717 44.5946 29.9092C47.2576 27.2457 48.7241 23.7052 48.7241 19.9391C48.7241 17.9727 48.326 16.0676 47.5403 14.2775L43.4354 4.36611L40.293 5.66797L34.625 0L28.957 5.66797L25.8146 4.36611L21.7092 14.2775C20.924 16.0676 20.5259 17.9722 20.5259 19.9391C20.5259 23.7052 21.9924 27.2457 24.6549 29.9087C27.3179 32.5717 30.8589 34.0383 34.625 34.0383ZM25.405 15.8809L27.9945 9.62968L29.9022 10.4196L34.625 5.69682L39.3478 10.4196L41.2555 9.62968L43.8272 15.839L43.8445 15.8804C44.4094 17.1618 44.6958 18.5277 44.6958 19.9397C44.6958 22.6294 43.6483 25.1586 41.7459 27.0606C39.844 28.963 37.3153 30.0105 34.625 30.0105C31.9347 30.0105 29.406 28.9625 27.5036 27.0606C25.6017 25.1581 24.5542 22.6294 24.5542 19.9391C24.5542 18.5277 24.8406 17.1618 25.405 15.8809Z" fill="#FE9901"/>
<path d="M30.3523 24.2119C31.4936 25.3533 33.011 25.9817 34.6245 25.9817C36.2389 25.9817 37.7564 25.3533 38.8977 24.2119C41.2534 21.8563 41.2534 18.0226 38.8977 15.667L34.625 11.3942L30.3523 15.667C27.9966 18.0226 27.9966 21.8563 30.3523 24.2119ZM33.2009 18.5151L34.625 17.091L36.0491 18.5151C36.8343 19.3003 36.8343 20.5786 36.0491 21.3638C35.6688 21.7441 35.1632 21.9534 34.625 21.9534C34.0868 21.9534 33.5812 21.7441 33.2009 21.3638C32.4157 20.5786 32.4157 19.3003 33.2009 18.5151V18.5151Z" fill="#FE9901"/>
</svg>
