<svg width="70" height="69" viewBox="0 0 70 69" fill="none" xmlns="http://www.w3.org/2000/svg">
<path d="M26.7 23H24.4V25.3H26.7V23Z" fill="#FE9901"/>
<path d="M26.7 27.6H24.4V29.9H26.7V27.6Z" fill="#FE9901"/>
<path d="M26.7 32.2H24.4V34.5H26.7V32.2Z" fill="#FE9901"/>
<path d="M26.7 36.8H24.4V39.1H26.7V36.8Z" fill="#FE9901"/>
<path d="M31.3 23H29V25.3H31.3V23Z" fill="#FE9901"/>
<path d="M31.3 27.6H29V29.9H31.3V27.6Z" fill="#FE9901"/>
<path d="M31.3 32.2H29V34.5H31.3V32.2Z" fill="#FE9901"/>
<path d="M31.3 36.8H29V39.1H31.3V36.8Z" fill="#FE9901"/>
<path d="M35.9 23H33.6V25.3H35.9V23Z" fill="#FE9901"/>
<path d="M35.9 27.6H33.6V29.9H35.9V27.6Z" fill="#FE9901"/>
<path d="M35.9 32.2H33.6V34.5H35.9V32.2Z" fill="#FE9901"/>
<path d="M35.9 36.8H33.6V39.1H35.9V36.8Z" fill="#FE9901"/>
<path d="M40.4999 23H38.2V25.3H40.4999V23Z" fill="#FE9901"/>
<path d="M31.3 18.4H29V20.7H31.3V18.4Z" fill="#FE9901"/>
<path d="M35.9 18.4H33.6V20.7H35.9V18.4Z" fill="#FE9901"/>
<path d="M40.4999 18.4H38.2V20.7H40.4999V18.4Z" fill="#FE9901"/>
<path d="M40.4999 27.6H38.2V29.9H40.4999V27.6Z" fill="#FE9901"/>
<path d="M40.4999 32.2H38.2V34.5H40.4999V32.2Z" fill="#FE9901"/>
<path d="M40.4999 36.8H38.2V39.1H40.4999V36.8Z" fill="#FE9901"/>
<path d="M45.1001 23H42.8V25.3H45.1001V23Z" fill="#FE9901"/>
<path d="M45.1001 27.6H42.8V29.9H45.1001V27.6Z" fill="#FE9901"/>
<path d="M45.1001 32.2H42.8V34.5H45.1001V32.2Z" fill="#FE9901"/>
<path d="M45.1001 36.8H42.8V39.1H45.1001V36.8Z" fill="#FE9901"/>
<path opacity="0.7" d="M68.1013 17.25C68.1009 17.25 68.1004 17.25 68.1 17.25H50.85V1.15C50.8504 0.5152 50.3361 0.000431521 49.7013 2.7099e-07C49.7009 2.7099e-07 49.7004 2.7099e-07 49.7 2.7099e-07H19.8C19.1652 -0.000430979 18.6504 0.513907 18.65 1.14871C18.65 1.14914 18.65 1.14957 18.65 1.15V17.25H1.4C0.7652 17.2496 0.250432 17.7639 0.25 18.3987C0.25 18.3991 0.25 18.3996 0.25 18.4V59.8C0.249569 60.4348 0.763907 60.9496 1.39871 60.95C1.39914 60.95 1.39957 60.95 1.4 60.95H3.80393C3.73723 61.3298 3.70244 61.7145 3.7 62.1V67.85C3.69957 68.4848 4.21391 68.9996 4.84871 69C4.84914 69 4.84957 69 4.85 69H64.65C65.2848 69.0004 65.7996 68.4861 65.8 67.8513C65.8 67.8509 65.8 67.8504 65.8 67.85V62.1C65.7977 61.7145 65.7629 61.3298 65.6961 60.95H68.1C68.7348 60.9504 69.2496 60.4361 69.25 59.8013C69.25 59.8009 69.25 59.8004 69.25 59.8V18.4C69.2504 17.7652 68.7361 17.2504 68.1013 17.25ZM49.7 49.45C49.7 50.7203 48.6703 51.75 47.4 51.75C46.1297 51.75 45.1 50.7203 45.1 49.45C45.1 48.1797 46.1297 47.15 47.4 47.15C48.6696 47.1516 49.6984 48.1804 49.7 49.45ZM22.1 47.15C23.3703 47.15 24.4 48.1797 24.4 49.45C24.4 50.7203 23.3703 51.75 22.1 51.75C20.8297 51.75 19.8 50.7203 19.8 49.45C19.8016 48.1804 20.8304 47.1516 22.1 47.15ZM15.2 66.7H6V62.1C6 59.5595 8.05951 57.5 10.6 57.5C13.1405 57.5 15.2 59.5595 15.2 62.1V66.7ZM8.3 52.9C8.3 51.6297 9.32968 50.6 10.6 50.6C11.8703 50.6 12.9 51.6297 12.9 52.9C12.9 54.1703 11.8703 55.2 10.6 55.2C9.3304 55.1984 8.30158 54.1696 8.3 52.9ZM15.3742 57.1298C14.9405 56.7115 14.4542 56.3516 13.9275 56.0591C15.6816 54.2214 15.6139 51.3095 13.7762 49.5554C11.9385 47.8012 9.02666 47.869 7.27248 49.7067C5.57579 51.4842 5.57579 54.2814 7.27248 56.0589C6.1748 56.6681 5.26285 57.5635 4.63351 58.6499H2.55V19.55H18.65V46.4393C17.0708 48.2113 17.1241 50.9012 18.7725 52.6091C17.0475 53.5631 15.8114 55.2076 15.3742 57.1298ZM26.7 66.7H17.5V58.65C17.5 56.1095 19.5595 54.05 22.1 54.05C24.6405 54.05 26.7 56.1095 26.7 58.65V66.7ZM40.5 66.7H29V58.65C29 55.4744 31.5744 52.9 34.75 52.9C37.9256 52.9 40.5 55.4744 40.5 58.65V66.7ZM31.3 47.15C31.3 45.2446 32.8446 43.7 34.75 43.7C36.6554 43.7 38.2 45.2446 38.2 47.15C38.2 49.0554 36.6554 50.6 34.75 50.6C32.8455 50.598 31.302 49.0545 31.3 47.15ZM41.7538 54.6962C40.9837 53.3386 39.838 52.2324 38.4543 51.5107C40.8832 49.4648 41.1937 45.8373 39.148 43.4083C37.1022 40.9794 33.4746 40.6689 31.0457 42.7146C28.6168 44.7604 28.3063 48.388 30.352 50.8169C30.563 51.0675 30.795 51.2995 31.0457 51.5107C29.662 52.2324 28.5163 53.3386 27.7462 54.6962C27.1416 53.8337 26.3487 53.1199 25.4275 52.6091C27.1906 50.8054 27.1578 47.9139 25.3541 46.1508C24.1927 45.0155 22.5159 44.5825 20.95 45.0133V2.3H48.55V45.0133C48.1752 44.9099 47.7887 44.855 47.4 44.85C44.8663 44.8432 42.8068 46.8918 42.8 49.4257C42.7968 50.6114 43.253 51.7523 44.0725 52.6091C43.1513 53.1199 42.3584 53.8337 41.7538 54.6962ZM52 62.1V66.7H42.8V58.65C42.8 56.1095 44.8595 54.05 47.4 54.05C49.9405 54.05 52 56.1095 52 58.65V62.1ZM63.5 66.7H54.3V62.1C54.3 59.5595 56.3595 57.5 58.9 57.5C61.4405 57.5 63.5 59.5595 63.5 62.1V66.7ZM56.6 52.9C56.6 51.6297 57.6297 50.6 58.9 50.6C60.1703 50.6 61.2 51.6297 61.2 52.9C61.2 54.1703 60.1703 55.2 58.9 55.2C57.6304 55.1984 56.6016 54.1696 56.6 52.9ZM66.95 58.65H64.8665C64.2371 57.5637 63.3252 56.6683 62.2275 56.0591C63.9816 54.2214 63.9139 51.3095 62.0762 49.5554C60.2385 47.8013 57.3267 47.869 55.5725 49.7067C53.8758 51.4842 53.8758 54.2814 55.5725 56.0589C55.0458 56.3514 54.5593 56.7114 54.1258 57.1297C53.6888 55.2075 52.4525 53.563 50.7275 52.6089C52.3759 50.901 52.4294 48.2112 50.8501 46.4392V19.55H66.9501V58.65H66.95Z" fill="#393939"/>
<path d="M56.6 26.45H54.3V44.85H56.6V26.45Z" fill="#FE9901"/>
<path d="M63.5 26.45H61.2V44.85H63.5V26.45Z" fill="#FE9901"/>
<path d="M8.3 26.45H6V44.85H8.3V26.45Z" fill="#FE9901"/>
<path d="M15.2 26.45H12.9V44.85H15.2V26.45Z" fill="#FE9901"/>
<g opacity="0.7">
<path d="M41.6512 4.59998C41.6508 4.59998 41.6504 4.59998 41.65 4.59998H27.85C27.2152 4.59954 26.7004 5.11388 26.7 5.74868C26.7 5.74911 26.7 5.74954 26.7 5.74998V14.95C26.6995 15.5848 27.2139 16.0995 27.8487 16.1C27.8491 16.1 27.8495 16.1 27.85 16.1H41.65C42.2848 16.1004 42.7995 15.5861 42.8 14.9513C42.8 14.9508 42.8 14.9504 42.8 14.95V5.74998C42.8004 5.11518 42.286 4.60041 41.6512 4.59998ZM40.5 13.8H29V6.89998H40.5V13.8Z" fill="#393939"/>
</g>
</svg>
