<svg width="70" height="69" viewBox="0 0 70 69" fill="none" xmlns="http://www.w3.org/2000/svg">
<path opacity="0.7" d="M27.5211 49.6864L16.2756 42.3708C15.6844 41.9865 14.8963 42.1246 14.4714 42.6879L6.39325 53.3986C6.07972 53.8142 6.03473 54.3736 6.27777 54.8339L13.2443 68.0339C13.4795 68.4794 13.94 68.75 14.4315 68.75C14.5086 68.75 14.5864 68.7433 14.6642 68.7296L19.8183 67.8237H19.8188C19.8189 67.8237 19.8191 67.8237 19.8192 67.8236L24.973 66.9179C25.5472 66.8171 25.9907 66.3572 26.0708 65.7796L28.1189 50.9963C28.1903 50.4806 27.9573 49.9704 27.5211 49.6864ZM15.8611 45.3051L24.3884 50.8523L17.6625 55.5566L9.73568 53.4267L15.8611 45.3051ZM15.1628 65.9153L10.0895 56.3028L16.7444 58.0909L18.0313 65.4112L15.1628 65.9153ZM23.545 64.4422L20.6763 64.9463L19.3894 57.6261L25.0364 53.6763L23.545 64.4422Z" fill="#393939"/>
<path opacity="0.7" d="M68.9166 50.1519L68.4872 37.8583C68.4625 37.1532 67.8966 36.5875 67.1917 36.5631L54.9001 36.1376C54.4626 36.1143 53.9928 36.3222 53.7435 36.6897L37.1811 59.1889C36.8867 59.5891 36.837 60.1193 37.0525 60.5671L39.2604 65.1575C39.3924 65.4321 39.6141 65.6535 39.8887 65.7857L44.4798 67.9932C44.6645 68.0819 44.8634 68.1257 45.0615 68.1257C45.3429 68.1257 45.6225 68.0374 45.8573 67.8647L68.371 51.3039C68.7302 51.0402 68.9404 50.5972 68.9166 50.1519ZM39.8226 60.1307L54.4251 40.2938L56.6752 46.4784L40.8601 62.2875L39.8226 60.1307ZM44.9162 65.2229L42.7594 64.1859L58.5742 48.3772L64.7594 50.6267L44.9162 65.2229ZM59.2772 45.7753L56.7722 38.8897L65.847 39.2038L66.164 48.28L59.2772 45.7753Z" fill="#393939"/>
<path opacity="0.7" d="M45.3222 18.3588L56.244 23.7256C56.4308 23.8175 56.6334 23.8633 56.8362 23.8633C57.0389 23.8633 57.2418 23.8173 57.4285 23.7256L68.3465 18.3588C68.9447 18.0648 69.2366 17.3765 69.0323 16.742L63.9387 0.931016C63.7599 0.376183 63.2436 -6.10352e-05 62.6606 -6.10352e-05H51.0079C50.4248 -6.10352e-05 49.9084 0.376183 49.7297 0.931016L44.6361 16.742C44.4318 17.3765 44.724 18.0649 45.3222 18.3588ZM58.1789 2.68548H61.6825L65.3634 14.1114L58.1789 9.70334V2.68548ZM64.9748 17.0237L56.8362 21.0242L48.6947 17.0237L56.8362 12.0301L64.9748 17.0237ZM51.9859 2.68548H55.4934V9.70307L48.3049 14.1122L51.9859 2.68548Z" fill="#393939"/>
<path d="M33.5991 14.2144C34.3406 14.2144 34.9419 13.6132 34.9419 12.8717V11.9924C34.9419 11.251 34.3406 10.6497 33.5991 10.6497C32.8576 10.6497 32.2563 11.251 32.2563 11.9924V12.8717C32.2563 13.6133 32.8576 14.2144 33.5991 14.2144Z" fill="#FE9901"/>
<path d="M33.5991 5.37282C34.3406 5.37282 34.9419 4.77153 34.9419 4.03005V3.14691C34.9419 2.40543 34.3406 1.80414 33.5991 1.80414C32.8576 1.80414 32.2563 2.40543 32.2563 3.14691V4.03005C32.2563 4.77153 32.8576 5.37282 33.5991 5.37282Z" fill="#FE9901"/>
<path d="M37.5812 9.354H38.4606C39.2021 9.354 39.8034 8.75271 39.8034 8.01123C39.8034 7.26975 39.2021 6.66846 38.4606 6.66846H37.5812C36.8398 6.66846 36.2385 7.26975 36.2385 8.01123C36.2385 8.75271 36.8396 9.354 37.5812 9.354Z" fill="#FE9901"/>
<path d="M28.734 9.354H29.6135C30.355 9.354 30.9563 8.75271 30.9563 8.01123C30.9563 7.26975 30.355 6.66846 29.6135 6.66846H28.734C27.9925 6.66846 27.3912 7.26975 27.3912 8.01123C27.3912 8.75271 27.9925 9.354 28.734 9.354Z" fill="#FE9901"/>
<path d="M12.3303 37.6531C13.0718 37.6531 13.6731 37.0518 13.6731 36.3104C13.6731 35.5689 13.0718 34.9676 12.3303 34.9676H11.4509C10.7094 34.9676 10.1082 35.5689 10.1082 36.3104C10.1082 37.0518 10.7094 37.6531 11.4509 37.6531H12.3303Z" fill="#FE9901"/>
<path d="M7.46905 33.6718C8.21053 33.6718 8.81182 33.0706 8.81182 32.3291V31.4498C8.81182 30.7083 8.21053 30.1071 7.46905 30.1071C6.72757 30.1071 6.12628 30.7083 6.12628 31.4498V32.3291C6.12628 33.0706 6.72744 33.6718 7.46905 33.6718Z" fill="#FE9901"/>
<path d="M3.48707 34.9676H2.60769C1.86622 34.9676 1.26492 35.5689 1.26492 36.3104C1.26492 37.0518 1.86622 37.6531 2.60769 37.6531H3.48707C4.22855 37.6531 4.82985 37.0518 4.82985 36.3104C4.82985 35.5689 4.22855 34.9676 3.48707 34.9676Z" fill="#FE9901"/>
<path d="M6.12628 41.1708C6.12628 41.9123 6.72757 42.5136 7.46905 42.5136C8.21053 42.5136 8.81182 41.9123 8.81182 41.1708V40.2916C8.81182 39.5501 8.21053 38.9488 7.46905 38.9488C6.72757 38.9488 6.12628 39.5501 6.12628 40.2916V41.1708Z" fill="#FE9901"/>
<path d="M47.889 23.9173C47.889 23.1758 47.2877 22.5745 46.5463 22.5745C45.8048 22.5745 45.2035 23.1758 45.2035 23.9173V24.8004C45.2035 25.5419 45.8048 26.1432 46.5463 26.1432C47.2877 26.1432 47.889 25.5419 47.889 24.8004V23.9173Z" fill="#FE9901"/>
<path d="M46.5463 31.4202C45.8048 31.4202 45.2035 32.0215 45.2035 32.7629V33.6422C45.2035 34.3837 45.8048 34.985 46.5463 34.985C47.2877 34.985 47.889 34.3837 47.889 33.6422V32.7629C47.889 32.0215 47.2879 31.4202 46.5463 31.4202Z" fill="#FE9901"/>
<path d="M50.5282 27.439C49.7867 27.439 49.1854 28.0403 49.1854 28.7817C49.1854 29.5232 49.7867 30.1245 50.5282 30.1245H51.4077C52.1492 30.1245 52.7505 29.5232 52.7505 28.7817C52.7505 28.0403 52.1492 27.439 51.4077 27.439H50.5282Z" fill="#FE9901"/>
<path d="M41.6811 30.1245H42.5642C43.3057 30.1245 43.907 29.5232 43.907 28.7817C43.907 28.0403 43.3057 27.439 42.5642 27.439H41.6811C40.9396 27.439 40.3383 28.0403 40.3383 28.7817C40.3383 29.5232 40.9395 30.1245 41.6811 30.1245Z" fill="#FE9901"/>
<path d="M31.1971 44.3384H30.3176C29.5761 44.3384 28.9749 44.9397 28.9749 45.6811C28.9749 46.4226 29.5761 47.0239 30.3176 47.0239H31.1971C31.9386 47.0239 32.5399 46.4226 32.5399 45.6811C32.5399 44.9397 31.9386 44.3384 31.1971 44.3384Z" fill="#FE9901"/>
<path d="M35.179 39.478C34.4375 39.478 33.8362 40.0793 33.8362 40.8207V41.7C33.8362 42.4415 34.4375 43.0428 35.179 43.0428C35.9205 43.0428 36.5218 42.4415 36.5218 41.7V40.8207C36.5218 40.0791 35.9206 39.478 35.179 39.478Z" fill="#FE9901"/>
<path d="M35.179 48.3199C34.4375 48.3199 33.8362 48.9212 33.8362 49.6627V50.5419C33.8362 51.2834 34.4375 51.8847 35.179 51.8847C35.9205 51.8847 36.5218 51.2834 36.5218 50.5419V49.6627C36.5218 48.921 35.9206 48.3199 35.179 48.3199Z" fill="#FE9901"/>
<path d="M37.8221 45.6811C37.8221 46.4226 38.4234 47.0239 39.1649 47.0239H40.0442C40.7857 47.0239 41.387 46.4226 41.387 45.6811C41.387 44.9397 40.7857 44.3384 40.0442 44.3384H39.1649C38.4232 44.3384 37.8221 44.9397 37.8221 45.6811Z" fill="#FE9901"/>
<path opacity="0.7" d="M17.7516 3.27582C17.4888 2.91891 17.0677 2.71669 16.6238 2.72999L2.66409 3.21338C1.95886 3.23782 1.39289 3.80367 1.36858 4.50876L0.88505 18.4659C0.869742 18.9092 1.07411 19.3312 1.43129 19.594L26.941 38.3624C27.1758 38.5352 27.4554 38.6236 27.7368 38.6236C27.9348 38.6236 28.1335 38.58 28.3183 38.4912L33.5223 35.9904C33.7939 35.8606 34.0202 35.6339 34.1506 35.3625L36.6555 30.1594C36.871 29.7115 36.8216 29.1812 36.527 28.7808L17.7516 3.27582ZM4.00901 5.85381L14.7279 5.48267L11.7698 13.613L3.63786 16.5706L4.00901 5.85381ZM32.5516 32.4926L26.2954 26.2375C25.7709 25.713 24.9208 25.7131 24.3964 26.2376C23.8721 26.762 23.8722 27.6122 24.3966 28.1366L30.6517 34.3906L27.8824 35.7215L5.04281 18.9172L12.4729 16.2149L15.8692 19.6105C16.1313 19.8727 16.475 20.0038 16.8185 20.0038C17.1623 20.0038 17.5059 19.8726 17.768 19.6104C18.2923 19.086 18.2922 18.2358 17.7678 17.7114L14.3717 14.316L17.0747 6.88667L33.885 29.7225L32.5516 32.4926Z" fill="#393939"/>
<path d="M20.1366 23.8772C20.3983 24.1389 20.7407 24.2696 21.0834 24.2696C21.4272 24.2696 21.771 24.138 22.0337 23.8752C22.558 23.3509 22.5563 22.4988 22.0318 21.9744C21.5073 21.4502 20.6574 21.4502 20.1327 21.9744C19.6084 22.4988 19.6084 23.349 20.1327 23.8735L20.1366 23.8772Z" fill="#FE9901"/>
</svg>
