<svg width="14" height="18" viewBox="0 0 14 18" fill="none" xmlns="http://www.w3.org/2000/svg">
<path d="M6.99996 10.4999C8.93019 10.4999 10.4999 8.93016 10.4999 6.99993C10.4999 5.0697 8.93019 3.49997 6.99996 3.49997C5.06973 3.49997 3.5 5.0697 3.5 6.99993C3.5 8.93016 5.06973 10.4999 6.99996 10.4999ZM6.99996 5.24995C7.96508 5.24995 8.74994 6.03482 8.74994 6.99993C8.74994 7.96504 7.96508 8.74991 6.99996 8.74991C6.03485 8.74991 5.24998 7.96504 5.24998 6.99993C5.24998 6.03482 6.03485 5.24995 6.99996 5.24995Z" fill="#FE9901"/>
<path d="M6.49251 17.3371C6.6406 17.4428 6.81802 17.4997 7 17.4997C7.18198 17.4997 7.3594 17.4428 7.50749 17.3371C7.77349 17.1489 14.0253 12.6349 13.9999 6.99992C13.9999 3.14034 10.8596 0 7 0C3.14042 0 7.70322e-05 3.14034 7.70322e-05 6.99555C-0.0252977 12.6349 6.22651 17.1489 6.49251 17.3371ZM7 1.74998C9.89534 1.74998 12.2499 4.10458 12.2499 7.0043C12.2683 10.8875 8.41048 14.3743 7 15.518C5.59039 14.3735 1.73168 10.8858 1.75006 6.99992C1.75006 4.10458 4.10466 1.74998 7 1.74998Z" fill="#FE9901"/>
</svg>
